<svg width="52" height="51" viewBox="0 0 52 51" fill="none" xmlns="http://www.w3.org/2000/svg">
<path fill-rule="evenodd" clip-rule="evenodd" d="M28.6692 29.4398V50.4558H22.4416V29.4398C20.3959 28.3361 19.0062 26.1781 19.0062 23.6958C19.0062 20.0912 21.9387 17.1683 25.5554 17.1683C29.1717 17.1683 32.1046 20.0912 32.1046 23.6958C32.1046 26.1781 30.7149 28.3361 28.6692 29.4398ZM16.3549 5.08535C17.5678 4.48915 18.0649 3.02517 17.4668 1.81742C16.8686 0.609249 15.4011 0.112964 14.1891 0.708755C9.23921 3.1425 5.38956 7.16875 2.95706 11.9098C1.16014 15.4111 0.13565 19.3072 0.0121123 23.2389C-0.112258 27.2038 0.67223 31.2089 2.4966 34.8952C4.74317 39.4364 8.55205 43.4755 14.1595 46.3351C15.3612 46.9474 16.8337 46.4719 17.4476 45.2741C18.062 44.0763 17.5853 42.609 16.3836 41.997C11.7927 39.6566 8.69431 36.3895 6.88616 32.7372C5.42783 29.7889 4.80057 26.5774 4.9004 23.3923C5.00147 20.1762 5.83879 16.99 7.30877 14.1267C9.27706 10.2912 12.3784 7.03981 16.3549 5.08535ZM36.9217 0.70834C35.7097 0.112135 34.2418 0.608835 33.6436 1.817C33.0455 3.02517 33.543 4.48915 34.7559 5.08494C38.7328 7.03981 41.8342 10.2907 43.8016 14.1267C45.2712 16.9896 46.1089 20.1758 46.2096 23.3923C46.3094 26.5774 45.6821 29.7889 44.2242 32.7372C42.4161 36.3895 39.3176 39.6566 34.7268 41.997C33.5251 42.6094 33.0488 44.0767 33.6627 45.2741C34.2767 46.4719 35.7492 46.947 36.9509 46.3351C42.5579 43.4759 46.3672 39.4364 48.6138 34.8952C50.4382 31.2089 51.2226 27.2038 51.0983 23.2389C50.9747 19.3072 49.9502 15.4111 48.1537 11.9098C45.7208 7.16875 41.8716 3.1425 36.9217 0.70834ZM34.4368 11.4454C33.5238 10.7899 32.2506 10.9968 31.593 11.9069C30.9358 12.8169 31.1429 14.0861 32.0559 14.7416C32.424 15.0057 32.7851 15.3021 33.1391 15.6263C35.2068 17.5265 36.433 20.0601 36.6905 22.741C36.9509 25.4459 36.2283 28.3121 34.3952 30.8474C34.0841 31.2782 33.7256 31.7148 33.32 32.1534C32.5567 32.9793 32.6096 34.2671 33.4394 35.0275C34.2688 35.7879 35.5603 35.7344 36.3232 34.9085C36.814 34.3782 37.2741 33.8135 37.7021 33.2202C40.1404 29.8457 41.0987 26.006 40.7477 22.3587C40.395 18.6882 38.7216 15.2242 35.9027 12.6333C35.4593 12.2257 34.9705 11.8294 34.4368 11.4454ZM19.0545 14.7428C19.9675 14.0873 20.175 12.8182 19.5174 11.9081C18.8598 10.9981 17.5866 10.7912 16.6735 11.4463C16.1395 11.8302 15.6511 12.2265 15.2077 12.6337C12.3884 15.225 10.715 18.6886 10.3623 22.3591C10.0112 26.006 10.9696 29.847 13.4083 33.2214C13.8372 33.8143 14.2968 34.3786 14.7872 34.9089C15.5501 35.7348 16.8416 35.7883 17.6706 35.0279C18.5008 34.2675 18.5537 32.9801 17.7904 32.1538C17.3848 31.7148 17.0263 31.2786 16.7151 30.8478C14.8824 28.3125 14.1595 25.4467 14.4199 22.7418C14.6774 20.0614 15.9036 17.5273 17.9713 15.6272C18.3257 15.3034 18.6868 15.0069 19.0545 14.7428Z" fill="white"/>
</svg>
