<svg width="36" height="51" viewBox="0 0 36 51" fill="none" xmlns="http://www.w3.org/2000/svg">
<path d="M35.4155 23.6947C35.4155 22.3885 34.3575 21.3346 33.0555 21.3346C31.7493 21.3346 30.6954 22.3926 30.6954 23.6947C30.6954 28.3455 29.5805 32.1867 27.3222 34.7502C25.2755 37.0695 22.1831 38.4082 18.0042 38.4082C13.8253 38.4082 10.7329 37.0736 8.68616 34.7542C6.42379 32.1908 5.31295 28.3496 5.31295 23.6947C5.31295 22.3885 4.25501 21.3346 2.95292 21.3346C1.64677 21.3346 0.592896 22.3926 0.592896 23.6947C0.592896 29.493 2.09436 34.4084 5.14612 37.8711C7.39221 40.4183 10.4196 42.1436 14.2322 42.8149V46.6886H8.44609C7.41256 46.6886 6.5662 47.535 6.5662 48.5685V50.4525H29.4503V48.5685C29.4503 47.535 28.604 46.6886 27.5704 46.6886H21.7721V42.8149C25.5848 42.1395 28.608 40.4183 30.8582 37.867C33.91 34.4084 35.4155 29.493 35.4155 23.6947ZM18.0001 0.456543C22.8178 0.456543 26.7566 4.39941 26.7566 9.21305V9.44092H22.0488V15.0195H26.7607V17.8597H22.0488V23.4383H26.7607V25.4443C26.7607 30.262 22.8178 34.2008 18.0042 34.2008C13.1865 34.2008 9.24768 30.258 9.24768 25.4443V23.4383H13.9596V17.8597H9.24361V15.0195H13.9555V9.44092H9.24361V9.21305C9.24361 4.39941 13.1824 0.456543 18.0001 0.456543Z" fill="white"/>
</svg>
