<svg width="101" height="51" viewBox="0 0 101 51" fill="none" xmlns="http://www.w3.org/2000/svg">
<path d="M40.0104 13.4008C40.0104 12.2433 40.9478 11.3059 42.1053 11.3059C43.2628 11.3059 44.2001 12.2433 44.2001 13.4008V37.5286C44.2001 38.6861 43.2628 39.6235 42.1053 39.6235C40.9478 39.6235 40.0104 38.6861 40.0104 37.5286V13.4008ZM60.2093 13.4008C60.2093 12.2433 59.2719 11.3059 58.1144 11.3059C56.9569 11.3059 56.0195 12.2433 56.0195 13.4008V37.5286C56.0195 38.6861 56.9569 39.6235 58.1144 39.6235C59.2719 39.6235 60.2093 38.6861 60.2093 37.5286V13.4008ZM100.191 8.16766C100.191 7.01018 99.2621 6.08093 98.1291 6.08093C96.9879 6.08093 96.0668 7.01018 96.0668 8.16766V42.7536C96.0668 43.9111 96.996 44.8403 98.1291 44.8403C99.2702 44.8403 100.191 43.9111 100.191 42.7536V8.16766ZM92.2275 2.55142C92.2275 1.39394 91.2901 0.456543 90.1327 0.456543C88.9752 0.456543 88.0378 1.39394 88.0378 2.55142V48.3617C88.0378 49.5191 88.9752 50.4565 90.1327 50.4565C91.2901 50.4565 92.2275 49.5191 92.2275 48.3617V2.55142ZM68.2138 18.1122C68.2138 16.9548 67.2765 16.0174 66.119 16.0174C64.9615 16.0174 64.0241 16.9548 64.0241 18.1122V32.8009C64.0241 33.9583 64.9615 34.8957 66.119 34.8957C67.2765 34.8957 68.2138 33.9583 68.2138 32.8009V18.1122ZM76.2103 13.4008C76.2103 12.2433 75.2729 11.3059 74.1154 11.3059C72.9579 11.3059 72.0205 12.2433 72.0205 13.4008V37.5286C72.0205 38.6861 72.9579 39.6235 74.1154 39.6235C75.2729 39.6235 76.2103 38.6861 76.2103 37.5286V13.4008ZM84.1904 8.16766C84.1904 7.01018 83.2611 6.08093 82.1281 6.08093C80.9869 6.08093 80.0658 7.01018 80.0658 8.16766V42.7536C80.0658 43.9111 80.9951 44.8403 82.1281 44.8403C83.2693 44.8403 84.1904 43.9111 84.1904 42.7536V8.16766ZM0.0283203 8.16766C0.0283203 7.01833 0.957567 6.08093 2.0906 6.08093C3.23178 6.08093 4.15287 7.01018 4.15287 8.16766V42.7536C4.15287 43.9111 3.22363 44.8403 2.0906 44.8403C0.949416 44.8403 0.0283203 43.9029 0.0283203 42.7536V8.16766ZM8.00028 2.55142C8.00028 1.39394 8.93768 0.456543 10.0952 0.456543C11.2526 0.456543 12.19 1.39394 12.19 2.55142V48.3617C12.19 49.5191 11.2526 50.4565 10.0952 50.4565C8.93768 50.4565 8.00028 49.5191 8.00028 48.3617V2.55142ZM32.0058 18.1122C32.0058 16.9548 32.9432 16.0174 34.1007 16.0174C35.2582 16.0174 36.1956 16.9548 36.1956 18.1122V32.8009C36.1956 33.9583 35.2582 34.8957 34.1007 34.8957C32.9432 34.8957 32.0058 33.9583 32.0058 32.8009V18.1122ZM24.0094 13.4008C24.0094 12.2433 24.9468 11.3059 26.1043 11.3059C27.2618 11.3059 28.1992 12.2433 28.1992 13.4008V37.5286C28.1992 38.6861 27.2618 39.6235 26.1043 39.6235C24.9468 39.6235 24.0094 38.6861 24.0094 37.5286V13.4008ZM16.0293 8.16766C16.0293 7.01018 16.9585 6.08093 18.0916 6.08093C19.2328 6.08093 20.1539 7.01018 20.1539 8.16766V42.7536C20.1539 43.9111 19.2246 44.8403 18.0916 44.8403C16.9504 44.8403 16.0293 43.9111 16.0293 42.7536V8.16766ZM48.0394 8.16766C48.0394 7.01018 48.9687 6.08093 50.1017 6.08093C51.2429 6.08093 52.164 7.01018 52.164 8.16766V42.7536C52.164 43.9111 51.2347 44.8403 50.1017 44.8403C48.9605 44.8403 48.0394 43.9111 48.0394 42.7536V8.16766Z" fill="white"/>
</svg>
